# xmcd CD database file
#
# Track frame offsets:
#	150
#	32331
#	83597
#	120927
#	170920
#
# Disc length: 2654 seconds
#
# Revision: 0
# Processed by: cddbd v1.4PL0 Copyright (c) Steve Scherf et al.
# Submitted via: CDex 1.50
#
DISCID=2e0a5c05
DTITLE=Kemp/Lapthorn Quartet - Kukus
DYEAR=2001
DGENRE=Jazz
TTITLE0=Peaceful Place
TTITLE1=Kukus
TTITLE2=Walking Wounded
TTITLE3=Strange Thoughts
TTITLE4=Float Downstream
EXTD=YEAR: 2001
EXTT0=
EXTT1=
EXTT2=
EXTT3=
EXTT4=
PLAYORDER=
